# Blender v2.71 (sub 0) OBJ File: 'painting.blend'
# www.blender.org
mtllib painting.mtl
o Cube
v 4.000000 0.079183 -3.163037
v 4.000000 0.079183 3.163037
v -4.000000 0.079183 3.163036
v -3.999998 0.079183 -3.163038
v 4.000002 -0.361752 -3.163036
v 3.999998 -0.361752 3.163039
v -4.000001 -0.361752 3.163036
v -4.000000 -0.361752 -3.163037
v 3.484746 -0.150386 2.565726
v -3.498303 -0.150386 -2.511425
v -3.749151 0.173294 -2.837232
v -3.498305 -0.150386 2.565725
v 4.000002 -0.361752 -3.163036
v 3.999998 -0.361752 3.163039
v -4.000001 -0.361752 3.163036
v -4.000000 -0.361752 -3.163037
v 3.484746 0.029704 -2.511424
v -3.498303 0.029704 -2.511425
v 3.484746 0.029704 2.565726
v -3.498305 0.029704 2.565725
v 3.484746 -0.150386 -2.511424
v 3.742373 0.173294 2.864381
v -3.749153 0.173294 2.864380
v 3.742373 0.173294 -2.837231
vt 0.788794 0.207711
vt 0.788794 0.040634
vt 0.795965 0.034888
vt 0.935166 0.213305
vt 0.935166 0.034888
vt 0.944869 0.213305
vt 0.954571 0.175973
vt 0.954572 0.317058
vt 0.964274 0.317058
vt 0.964274 0.034888
vt 0.954572 0.034888
vt 0.954571 0.213305
vt 0.944869 0.034888
vt 0.968237 0.034888
vt 0.968237 0.190625
vt 0.795965 0.213305
vt 0.656763 0.213305
vt 0.663333 0.207711
vt 0.663333 0.040634
vt 0.656763 0.034888
vt 0.660726 0.213305
vt 0.660726 0.326536
vt 0.664689 0.213305
vt 0.664689 0.326536
vt 0.092223 0.967328
vt 0.092222 0.383930
vt 0.894621 0.383930
vt 0.964274 0.190625
vt 0.968237 0.346362
vt 0.781627 0.202116
vt 0.781627 0.046379
vt 0.669908 0.202116
vt 0.669908 0.046379
vt 0.964274 0.175973
vt 0.656763 0.326536
vt 0.894621 0.967328
vt 0.964274 0.346362
vn -0.084300 0.995700 -0.038100
vn 0.080500 0.995900 -0.039500
vn 0.603800 0.514200 -0.609000
vn 0.577300 -0.577300 0.577300
vn -0.577300 -0.577300 0.577300
vn -0.577300 -0.577300 -0.577300
vn 0.606100 0.511000 0.609500
vn -0.606100 0.510200 0.610200
vn -0.603800 0.513500 -0.609600
vn 0.577300 -0.577300 -0.577300
vn -0.493100 0.738500 -0.459900
vn -0.577300 0.577300 -0.577300
vn 0.577300 0.577300 -0.577300
vn -0.078400 0.995800 0.046400
vn 0.074800 0.996000 0.048000
vn -0.496800 0.745000 0.445100
vn -0.577300 0.577300 0.577300
vn 0.498300 0.735600 -0.458900
vn 0.577300 0.577300 0.577300
vn 0.502000 0.742000 0.444200
usemtl Material
s 1
f 11/1/1 24/2/2 1/3/3
f 14/4/4 15/5/5 16/3/6
f 2/5/7 3/4/8 15/6/5
f 1/7/3 2/8/7 14/9/4
f 4/10/9 16/11/6 15/7/5
f 13/12/10 16/11/6 4/13/9
f 19/10/11 9/14/12 12/15/13
f 4/16/9 3/17/8 23/18/14
f 22/19/15 2/20/7 1/3/3
f 17/17/16 21/21/17 9/22/12
f 20/21/18 12/23/13 10/24/19
f 10/25/19 12/26/13 9/27/12
f 23/18/14 3/17/8 2/20/7
f 18/28/20 10/15/19 21/29/17
f 18/30/20 17/31/16 24/2/2
f 11/1/1 23/18/14 20/32/18
f 19/33/11 22/19/15 24/2/2
f 20/32/18 23/18/14 22/19/15
f 4/16/9 11/1/1 1/3/3
f 13/16/10 14/4/4 16/3/6
f 14/13/4 2/5/7 15/6/5
f 13/34/10 1/7/3 14/9/4
f 3/34/8 4/10/9 15/7/5
f 1/6/3 13/12/10 4/13/9
f 20/28/18 19/10/11 12/15/13
f 11/1/1 4/16/9 23/18/14
f 24/2/2 22/19/15 1/3/3
f 19/35/11 17/17/16 9/22/12
f 18/22/20 20/21/18 10/24/19
f 21/36/17 10/25/19 9/27/12
f 22/19/15 23/18/14 2/20/7
f 17/37/16 18/28/20 21/29/17
f 11/1/1 18/30/20 24/2/2
f 18/30/20 11/1/1 20/32/18
f 17/31/16 19/33/11 24/2/2
f 19/33/11 20/32/18 22/19/15
l 1 5
l 2 6
l 3 7
l 4 8
