# Blender v2.69 (sub 0) OBJ File: 'testbox.blend'
# www.blender.org
o Cube
v 1.836207 0.060163 -2.851310
v 1.836207 0.060163 2.851311
v -1.860633 0.060163 2.851310
v -1.860633 0.060163 -2.851312
v 1.836207 0.703801 -2.851310
v 1.836207 0.703801 2.851311
v -1.860633 0.703801 2.851310
v -1.860633 0.703801 -2.851312
v 1.836207 0.060163 -3.031711
v -1.860633 0.060163 -3.031713
v 1.836207 0.703801 -3.031711
v -1.860633 0.703801 -3.031713
v 1.836207 0.060163 3.038476
v -1.860633 0.060163 3.038476
v 1.836207 0.703801 3.038476
v -1.860633 0.703801 3.038476
v -2.066999 0.060163 2.851310
v -2.066999 0.060163 -2.851312
v -2.066999 0.703801 2.851310
v -2.066999 0.703801 -2.851312
v -2.066998 0.060163 -3.031713
v -2.066998 0.703801 -3.031713
v -2.066999 0.060163 3.038476
v -2.066999 0.703801 3.038476
v 2.037537 0.060163 -2.851310
v 2.037537 0.060163 2.851311
v 2.037537 0.703801 -2.851310
v 2.037537 0.703801 2.851311
v 2.037537 0.060163 -3.031711
v 2.037537 0.703801 -3.031711
v 2.037537 0.060163 3.038476
v 2.037537 0.703801 3.038476
vt 0.999901 0.302103
vt 0.534040 0.302103
vt 0.534040 0.000099
vt 0.477541 0.675899
vt 0.441100 0.621192
vt 0.456041 0.620061
vt 0.090995 0.597805
vt 0.051492 0.649864
vt 0.047479 0.624819
vt 0.000099 0.671349
vt 0.022122 0.617072
vt 0.091891 0.579515
vt 0.076680 0.592099
vt 0.052639 0.026453
vt 0.482887 0.046266
vt 0.444196 0.094461
vt 0.442116 0.604830
vt 0.460931 0.604700
vt 0.443059 0.112223
vt 0.090379 0.100747
vt 0.091228 0.084812
vt 0.000099 0.000099
vt 0.533842 0.023583
vt 0.531432 0.704296
vt 0.489358 0.650401
vt 0.510055 0.077621
vt 0.508244 0.643619
vt 0.461159 0.112001
vt 0.458850 0.100455
vt 0.489644 0.067614
vt 0.074167 0.579965
vt 0.071929 0.101161
vt 0.021529 0.060139
vt 0.043704 0.056271
vt 0.076562 0.086068
vt 0.136405 0.522053
vt 0.383718 0.554287
vt 0.397472 0.172792
vt 0.147702 0.148893
vt 0.999901 0.000099
vn 0.000000 -1.000000 0.000000
vn 0.000000 0.000000 1.000000
vn 0.000000 1.000000 0.000000
vn 0.000000 0.000000 -1.000000
vn -1.000000 0.000000 -0.000000
vn -1.000000 0.000000 -0.000001
vn 0.000000 1.000000 -0.000001
vn 1.000000 0.000000 0.000000
vn 1.000000 0.000000 0.000001
vn 0.000000 1.000000 0.000001
s off
f 1/1/1 2/2/1 3/3/1
f 14/4/2 16/5/2 24/6/2
f 15/7/2 13/8/2 31/9/2
f 13/8/1 2/10/1 26/11/1
f 6/12/3 15/7/3 32/13/3
f 9/14/4 10/15/4 12/16/4
f 16/5/3 7/17/3 19/18/3
f 8/19/3 5/20/3 11/21/3
f 1/22/1 4/23/1 10/15/1
f 14/4/2 13/8/2 16/5/2
f 3/24/1 14/4/1 23/25/1
f 6/12/3 7/17/3 16/5/3
f 3/24/1 2/10/1 14/4/1
f 18/26/5 17/27/5 19/18/5
f 18/26/6 20/28/6 22/29/6
f 19/18/5 17/27/5 23/25/5
f 8/19/7 12/16/7 22/29/7
f 10/15/1 4/23/1 21/30/1
f 12/16/4 10/15/4 21/30/4
f 7/17/3 8/19/3 20/28/3
f 4/23/1 3/24/1 17/27/1
f 26/11/8 28/31/8 32/13/8
f 27/32/9 25/33/9 29/34/9
f 26/11/8 25/33/8 27/32/8
f 1/22/1 9/14/1 25/33/1
f 11/21/3 5/20/3 27/32/3
f 9/14/4 11/21/4 30/35/4
f 5/20/3 6/12/3 28/31/3
f 2/10/1 1/22/1 25/33/1
f 2/36/5 6/12/5 5/20/5
f 6/12/4 2/36/4 3/37/4
f 7/17/8 3/37/8 4/38/8
f 1/39/2 5/20/2 8/19/2
f 4/40/1 1/1/1 3/3/1
f 23/25/2 14/4/2 24/6/2
f 32/13/2 15/7/2 31/9/2
f 31/9/1 13/8/1 26/11/1
f 28/31/3 6/12/3 32/13/3
f 11/21/4 9/14/4 12/16/4
f 24/6/3 16/5/3 19/18/3
f 12/16/7 8/19/7 11/21/7
f 9/14/1 1/22/1 10/15/1
f 2/10/1 13/8/1 14/4/1
f 17/27/1 3/24/1 23/25/1
f 15/7/3 6/12/3 16/5/3
f 20/28/5 18/26/5 19/18/5
f 21/30/6 18/26/6 22/29/6
f 24/6/5 19/18/5 23/25/5
f 20/28/3 8/19/3 22/29/3
f 4/23/1 18/26/1 21/30/1
f 22/29/4 12/16/4 21/30/4
f 19/18/3 7/17/3 20/28/3
f 18/26/1 4/23/1 17/27/1
f 31/9/8 26/11/8 32/13/8
f 30/35/9 27/32/9 29/34/9
f 28/31/8 26/11/8 27/32/8
f 9/14/1 29/34/1 25/33/1
f 30/35/10 11/21/10 27/32/10
f 29/34/4 9/14/4 30/35/4
f 27/32/3 5/20/3 28/31/3
f 26/11/1 2/10/1 25/33/1
f 1/39/5 2/36/5 5/20/5
f 7/17/4 6/12/4 3/37/4
f 8/19/8 7/17/8 4/38/8
f 4/38/2 1/39/2 8/19/2
f 13/8/2 15/7/2 16/5/2
