# Blender v2.69 (sub 0) OBJ File: 'building1.blend'
# www.blender.org
mtllib building1.mtl
o building_04_GEO_Cube.007
v -0.578360 0.000165 0.579322
v -0.578360 0.000165 -0.579322
v 0.580285 0.000165 -0.579322
v 0.580285 0.000165 0.579322
v -0.578360 1.933621 -0.579322
v -0.485897 1.933621 0.486859
v 0.580285 1.933621 -0.579322
v 0.580285 1.933621 0.579322
v -0.485897 1.933621 -0.486859
v -0.578360 1.933621 0.579322
v 0.487822 1.933621 -0.486859
v 0.487822 1.933621 0.486859
v -0.485897 3.693899 -0.486859
v -0.485897 3.693899 0.486859
v 0.487822 3.693899 -0.486859
v 0.487822 3.693899 0.486859
v -0.047915 5.645049 0.048878
v -0.047915 5.645049 -0.048878
v 0.049840 5.645049 -0.048878
v 0.049840 5.645049 0.048878
v 0.000963 7.062868 0.000000
v -0.485897 1.933621 0.168139
v -0.485897 1.933621 -0.168139
v 0.487822 1.933621 -0.168139
v 0.487822 1.933621 0.168139
v -0.485897 3.693899 -0.168139
v -0.485897 3.693899 0.168139
v 0.487822 3.693899 0.168139
v 0.487822 3.693899 -0.168139
v -0.394459 3.693899 -0.168139
v -0.394459 1.933621 -0.168139
v -0.394459 1.933621 0.168139
v -0.394459 3.693899 0.168139
v 0.396384 3.693899 0.168139
v 0.396384 1.933621 0.168139
v 0.396384 1.933621 -0.168139
v 0.396384 3.693899 -0.168139
v -0.314296 3.693899 0.395007
v -0.394045 3.693899 0.315259
v -0.394190 3.693899 -0.315259
v -0.314296 3.693899 -0.395007
v 0.316222 3.693899 -0.395007
v 0.395970 3.693899 -0.315259
v 0.396116 3.693899 0.315259
v 0.316222 3.693899 0.395007
v -0.314296 4.982246 -0.395007
v -0.394045 4.982246 -0.315259
v -0.394045 4.982246 0.315259
v -0.314296 4.982246 0.395007
v 0.395970 4.982246 -0.315259
v 0.316222 4.982246 -0.395007
v 0.316222 4.982246 0.395007
v 0.395970 4.982246 0.315259
v -0.203322 5.645049 0.082111
v -0.081148 5.645049 0.204285
v -0.081148 5.645049 -0.204285
v -0.203322 5.645049 -0.082111
v 0.205248 5.645049 -0.082111
v 0.083073 5.645049 -0.204285
v 0.083073 5.645049 0.204285
v 0.205248 5.645049 0.082111
v -0.081148 4.982246 0.204285
v -0.203322 4.982246 0.082111
v -0.203322 4.982246 -0.082111
v -0.081148 4.982246 -0.204285
v 0.083073 4.982246 -0.204285
v 0.205248 4.982246 -0.082111
v 0.205248 4.982246 0.082111
v 0.083073 4.982246 0.204285
vt 0.395989 0.339910
vt 0.207488 0.339910
vt 0.395989 0.025354
vt 0.018987 0.339910
vt 0.207488 0.025353
vt 0.772992 0.339910
vt 0.584490 0.339910
vt 0.772991 0.025354
vt 0.584490 0.025354
vt 0.880669 0.595955
vt 0.862169 0.625301
vt 0.866067 0.579590
vt 0.170728 0.672775
vt 0.113775 0.672775
vt 0.170728 0.358223
vt 0.344727 0.672775
vt 0.344727 0.358223
vt 0.328387 0.987465
vt 0.154389 0.987464
vt 0.328387 0.672912
vt 0.401680 0.672775
vt 0.401680 0.358223
vt 0.846556 0.523665
vt 0.846535 0.398896
vt 0.858420 0.535539
vt 0.385341 0.987465
vt 0.385341 0.672912
vt 0.719214 0.399221
vt 0.720951 0.523672
vt 0.707187 0.387359
vt 0.858522 0.427997
vt 0.880634 0.416161
vt 0.983991 0.427996
vt 0.843579 0.958585
vt 0.843601 0.702791
vt 0.872811 0.702794
vt 0.983990 0.494470
vt 0.961878 0.506306
vt 0.858522 0.494470
vt 0.880634 0.506305
vt 0.870358 0.516582
vt 0.644399 0.702789
vt 0.673609 0.702789
vt 0.673608 0.958585
vt 0.970142 0.108381
vt 0.970142 0.148094
vt 0.809859 0.108381
vt 0.862583 0.535642
vt 0.900932 0.535642
vt 0.882432 0.564989
vt 0.836721 0.561090
vt 0.897033 0.581353
vt 0.836618 0.593091
vt 0.797997 0.589225
vt 0.779169 0.535642
vt 0.783034 0.574262
vt 0.760771 0.574262
vt 0.779169 0.665073
vt 0.783034 0.626452
vt 0.836618 0.607623
vt 0.970141 0.271372
vt 0.970141 0.311084
vt 0.809858 0.271375
vt 0.970142 0.026884
vt 0.970142 0.066598
vt 0.809859 0.026885
vt 0.881550 0.580472
vt 0.805576 0.523619
vt 0.021005 0.987464
vt 0.021005 0.672912
vt 0.081096 0.987464
vt 0.037344 0.672775
vt 0.037344 0.358223
vt 0.097436 0.672775
vt 0.097435 0.987464
vt 0.154389 0.672912
vt 0.018919 0.025286
vt 0.081096 0.672912
vt 0.021005 0.358223
vt 0.097435 0.358223
vt 0.760569 0.412875
vt 0.760050 0.399135
vt 0.805615 0.411253
vt 0.805507 0.399096
vt 0.858420 0.386927
vt 0.968765 0.958596
vt 0.939577 0.702799
vt 0.870339 0.405885
vt 0.526029 0.958587
vt 0.400842 0.958598
vt 0.526008 0.702791
vt 0.805601 0.511859
vt 0.762107 0.511704
vt 0.762113 0.523578
vt 0.709244 0.535535
vt 0.972173 0.516582
vt 0.972207 0.535539
vt 0.858523 0.535539
vt 0.870305 0.535539
vt 0.870305 0.386927
vt 0.548421 0.702789
vt 0.577632 0.702789
vt 0.548422 0.958585
vt 0.961879 0.416160
vt 0.972155 0.405884
vt 0.696001 0.958585
vt 0.968787 0.702802
vt 0.991157 0.958598
vt 0.821187 0.958586
vt 0.821188 0.702790
vt 0.972208 0.386928
vt 0.900518 0.625301
vt 0.764636 0.535642
vt 0.707187 0.593091
vt 0.745808 0.589225
vt 0.745808 0.611489
vt 0.926380 0.599853
vt 0.707187 0.607623
vt 0.764636 0.665073
vt 0.797997 0.611489
vt 0.760771 0.626452
vt 0.809858 0.148094
vt 0.809858 0.189877
vt 0.809858 0.229591
vt 0.970141 0.229589
vt 0.809859 0.311089
vt 0.809861 0.352873
vt 0.809859 0.066598
vt 0.970141 0.189877
vt 0.926380 0.561504
vt 0.836720 0.599439
vt 0.433306 0.566591
vt 0.488829 0.566591
vt 0.433305 0.622114
vt 0.018987 0.025353
vt 0.113775 0.358223
vt 0.097435 0.672912
vt 0.021005 0.672775
vt 0.400821 0.702801
vt 0.983989 0.535539
vt 0.858522 0.386927
vt 0.696002 0.702789
vt 0.991179 0.702804
vt 0.983990 0.386927
vt 0.970142 0.352865
vt 0.488829 0.622114
vn -1.000000 0.000000 0.000000
vn 0.000000 0.000000 -1.000000
vn 1.000000 0.000000 0.000000
vn 0.000000 0.000000 1.000000
vn 0.000000 1.000000 0.000000
vn 0.000000 1.000000 -0.000005
vn 0.999998 0.000113 0.001826
vn 0.000000 1.000000 0.000005
vn -0.999996 0.000000 0.002816
vn 0.000000 1.000000 -0.000008
vn 0.000000 1.000000 -0.000002
vn 0.000000 0.034453 0.999406
vn -0.999406 0.034453 0.000000
vn 0.000000 0.034453 -0.999406
vn 0.999406 0.034453 0.000000
vn 1.000000 0.000322 0.000000
vn -0.999998 0.000113 -0.001826
vn -1.000000 0.000322 0.000000
vn -0.707107 0.000000 0.707107
vn -0.706460 0.000000 -0.707753
vn 0.707107 0.000000 -0.707107
vn 0.706460 0.000000 0.707753
vn 0.000000 1.000000 -0.000001
vn 0.999996 0.000000 -0.002816
vn 0.000000 1.000000 0.000002
vn 0.000000 1.000000 0.000008
vn -0.707107 0.000000 -0.707107
vn 0.707107 0.000000 0.707107
vn 0.000000 -1.000000 0.000000
vn 0.000000 1.000000 0.000006
vn 0.000000 1.000000 -0.000006
vn 1.000000 0.000321 0.000000
vn 0.000000 1.000000 0.000001
vn -0.707107 0.000000 0.707106
vn -0.707107 0.000080 -0.707107
vn 0.707107 0.000000 -0.707106
vn 0.707107 0.000080 0.707107
vn 0.000000 1.000000 -0.000004
vn 0.000000 1.000000 0.000004
vn -0.707106 0.000000 0.707107
vn 0.707106 -0.000000 -0.707107
usemtl Material
s off
f 10/1/1 5/2/1 1/3/1
f 5/2/2 7/4/2 2/5/2
f 7/6/3 8/7/3 3/8/3
f 8/7/4 10/1/4 4/9/4
f 20/10/5 61/11/5 19/12/5
f 15/13/3 29/14/3 11/15/3
f 13/16/2 15/13/2 9/17/2
f 16/18/4 14/19/4 12/20/4
f 26/21/1 13/16/1 23/22/1
f 9/23/5 11/24/5 5/25/5
f 28/26/3 16/18/3 25/27/3
f 12/28/5 6/29/5 8/30/5
f 13/31/6 41/32/6 15/33/6
f 53/34/7 44/35/7 34/36/7
f 16/37/8 45/38/8 14/39/8
f 38/40/5 39/41/5 14/39/5
f 33/42/9 39/43/9 48/44/9
f 60/45/4 55/46/4 69/47/4
f 56/48/8 57/49/8 18/50/8
f 19/12/10 59/51/10 18/50/10
f 18/50/5 57/49/5 17/52/5
f 50/53/5 67/54/5 53/55/5
f 68/56/5 69/57/5 53/55/5
f 46/58/11 65/59/11 51/60/11
f 56/61/2 59/62/2 65/63/2
f 58/64/3 61/65/3 67/66/3
f 17/52/12 20/10/12 21/67/12
f 18/50/13 17/52/13 21/67/13
f 19/12/14 18/50/14 21/67/14
f 20/10/15 19/12/15 21/67/15
f 23/68/5 9/23/5 5/25/5
f 30/69/1 31/70/1 33/71/1
f 34/72/3 35/73/3 37/74/3
f 14/19/1 27/75/1 6/76/1
f 31/77/4 30/77/4 23/77/4
f 33/71/2 32/78/2 27/75/2
f 35/73/2 34/72/2 25/79/2
f 37/74/4 36/80/4 29/14/4
f 35/81/5 25/82/5 36/83/5
f 11/24/5 24/84/5 7/85/5
f 25/82/5 8/30/5 24/84/5
f 25/82/5 12/28/5 8/30/5
f 50/86/16 53/34/16 37/87/16
f 40/88/5 41/32/5 13/31/5
f 46/89/2 51/90/2 41/91/2
f 31/92/5 23/68/5 32/93/5
f 23/68/5 5/25/5 22/94/5
f 22/94/5 10/95/5 6/29/5
f 44/96/5 45/38/5 16/37/5
f 34/97/5 44/96/5 16/37/5
f 27/98/5 14/39/5 33/99/5
f 30/100/5 40/88/5 13/31/5
f 40/101/17 30/102/17 47/103/17
f 42/104/5 43/105/5 15/33/5
f 30/102/18 33/42/18 47/103/18
f 48/44/19 39/43/19 49/106/19
f 46/89/20 41/91/20 40/101/20
f 50/86/21 43/107/21 51/108/21
f 52/109/22 45/110/22 44/35/22
f 52/109/4 49/106/4 45/110/4
f 15/33/23 43/105/23 37/111/23
f 60/112/6 61/11/6 20/10/6
f 43/107/24 50/86/24 37/87/24
f 52/113/25 69/57/25 49/114/25
f 62/115/25 63/116/25 49/114/25
f 17/52/26 55/117/26 20/10/26
f 48/118/5 63/116/5 47/119/5
f 66/120/11 67/54/11 51/60/11
f 64/121/5 65/59/5 47/119/5
f 62/122/19 55/46/19 63/123/19
f 64/124/27 57/125/27 65/63/27
f 66/126/21 59/62/21 67/127/21
f 68/128/28 61/65/28 69/47/28
f 54/129/1 57/125/1 63/123/1
f 54/130/6 55/117/6 17/52/6
f 58/131/8 59/51/8 19/12/8
f 2/132/29 3/133/29 1/134/29
f 5/2/1 2/5/1 1/3/1
f 7/4/2 3/135/2 2/5/2
f 8/7/3 4/9/3 3/8/3
f 10/1/4 1/3/4 4/9/4
f 61/11/5 58/131/5 19/12/5
f 29/14/3 24/136/3 11/15/3
f 15/13/2 11/15/2 9/17/2
f 14/19/4 6/76/4 12/20/4
f 13/16/1 9/17/1 23/22/1
f 11/24/5 7/85/5 5/25/5
f 16/18/3 12/20/3 25/27/3
f 6/29/5 10/95/5 8/30/5
f 41/32/30 42/104/30 15/33/30
f 45/38/31 38/40/31 14/39/31
f 55/46/4 62/122/4 69/47/4
f 59/51/8 56/48/8 18/50/8
f 57/49/5 54/130/5 17/52/5
f 67/54/5 68/56/5 53/55/5
f 69/57/5 52/113/5 53/55/5
f 65/59/5 66/120/5 51/60/5
f 59/62/2 66/126/2 65/63/2
f 61/65/3 68/128/3 67/66/3
f 31/70/1 32/78/1 33/71/1
f 35/73/3 36/80/3 37/74/3
f 27/75/1 22/137/1 6/76/1
f 30/77/4 26/77/4 23/77/4
f 32/78/2 22/137/2 27/75/2
f 34/72/2 28/138/2 25/79/2
f 36/80/4 24/136/4 29/14/4
f 25/82/5 24/84/5 36/83/5
f 8/30/5 7/85/5 24/84/5
f 53/34/32 34/36/32 37/87/32
f 51/90/2 42/139/2 41/91/2
f 23/68/5 22/94/5 32/93/5
f 5/25/5 10/95/5 22/94/5
f 28/140/5 34/97/5 16/37/5
f 14/39/33 39/41/33 33/99/33
f 26/141/5 30/100/5 13/31/5
f 33/42/18 48/44/18 47/103/18
f 39/43/34 38/142/34 49/106/34
f 47/103/35 46/89/35 40/101/35
f 43/107/36 42/143/36 51/108/36
f 53/34/37 52/109/37 44/35/37
f 49/106/4 38/142/4 45/110/4
f 29/144/5 15/33/5 37/111/5
f 69/57/5 62/115/5 49/114/5
f 63/116/38 48/118/38 49/114/38
f 55/117/6 60/112/6 20/10/6
f 63/116/5 64/121/5 47/119/5
f 67/54/39 50/53/39 51/60/39
f 65/59/5 46/58/5 47/119/5
f 55/46/40 54/129/40 63/123/40
f 57/125/27 56/61/27 65/63/27
f 59/62/41 58/145/41 67/127/41
f 61/65/28 60/45/28 69/47/28
f 57/125/1 64/124/1 63/123/1
f 3/133/29 4/146/29 1/134/29
