# Blender v2.71 (sub 0) OBJ File: 'chandelier.blend'
# www.blender.org
mtllib chandelier.mtl
o Sphere
v -0.785189 0.314131 -0.785189
v 0.000000 0.362193 -0.553917
v -0.710363 0.444995 -0.676677
v -0.707107 0.348301 -0.707107
v -0.676677 0.444995 -0.710363
v -0.044671 0.355544 -0.553025
v -0.444517 0.359258 -0.502416
v -0.503352 0.359204 -0.444557
v -0.050050 0.447845 -0.044274
v -0.168292 0.000000 -0.195090
v -0.418808 0.320785 -0.278928
v -0.266294 0.320785 -0.425415
v 0.000000 0.156324 -0.443521
v -0.516046 0.363599 -0.041246
v 0.785189 0.314131 -0.785189
v 0.710363 0.444995 -0.676677
v 0.707107 0.348301 -0.707107
v 0.676677 0.444995 -0.710363
v 0.044671 0.355544 -0.553025
v 0.444517 0.359258 -0.502416
v 0.503352 0.359204 -0.444557
v 0.050050 0.447845 -0.044274
v 0.168292 0.000000 -0.195090
v 0.418808 0.320785 -0.278928
v 0.266294 0.320785 -0.425415
v 0.050050 1.368296 0.044274
v 0.516046 0.363599 -0.041246
v -0.785189 0.314131 0.785189
v 0.000000 0.362193 0.553917
v -0.710363 0.444995 0.676677
v -0.707107 0.348301 0.707107
v -0.676677 0.444995 0.710363
v -0.044671 0.355544 0.553025
v -0.444517 0.359258 0.502416
v -0.503352 0.359204 0.444557
v 0.000000 -0.406307 0.000000
v -0.050050 0.447845 0.044274
v -0.168292 0.000000 0.195090
v -0.438266 0.156324 0.000000
v -0.418808 0.320785 0.278928
v -0.266294 0.320785 0.425415
v 0.000000 0.156324 0.443521
v -0.516046 0.363599 0.041246
v -0.514111 0.371911 0.000000
v 0.785189 0.314131 0.785189
v 0.050050 1.368296 -0.044274
v 0.710363 0.444995 0.676677
v 0.707107 0.348301 0.707107
v 0.676677 0.444995 0.710363
v 0.044671 0.355544 0.553025
v 0.444517 0.359258 0.502416
v 0.503352 0.359204 0.444557
v -0.050050 1.368296 0.044274
v 0.050050 0.447845 0.044274
v 0.168292 0.000000 0.195090
v 0.438266 0.156324 0.000000
v 0.418808 0.320785 0.278928
v 0.266294 0.320785 0.425415
v -0.050050 1.368296 -0.044274
v 0.516046 0.363599 0.041246
v 0.514111 0.371911 0.000000
vt 0.929310 0.262258
vt 0.809335 0.282497
vt 0.728125 0.255359
vt 0.874874 0.385290
vt 0.925853 0.171733
vt 0.929310 0.184784
vt 0.231046 0.265742
vt 0.166356 0.171172
vt 0.203218 0.031869
vt 0.138586 0.267775
vt 0.100675 0.130404
vt 0.166356 0.031869
vt 0.211251 0.034584
vt 0.202072 0.127356
vt 0.188075 0.122837
vt 0.245440 0.840031
vt 0.255751 0.839216
vt 0.256312 0.955499
vt 0.120911 0.177749
vt 0.315882 0.860925
vt 0.423660 0.258013
vt 0.438364 0.258815
vt 0.438364 0.434920
vt 0.818060 0.436801
vt 0.807701 0.443509
vt 0.397318 0.308626
vt 0.096540 0.839216
vt 0.107632 0.839282
vt 0.095342 0.966182
vt 0.040369 0.868560
vt 0.446256 0.031869
vt 0.446256 0.209258
vt 0.418881 0.161418
vt 0.494793 0.919815
vt 0.411435 0.902211
vt 0.464863 0.855376
vt 0.494793 0.713649
vt 0.863307 0.106198
vt 0.862677 0.198452
vt 0.119922 0.966182
vt 0.357308 0.034999
vt 0.357308 0.152110
vt 0.303129 0.258013
vt 0.295735 0.137498
vt 0.343397 0.031869
vt 0.345517 0.108177
vt 0.321446 0.102651
vt 0.245440 0.827613
vt 0.256312 0.712146
vt 0.255751 0.828429
vt 0.315882 0.806720
vt 0.199035 0.265742
vt 0.226893 0.388402
vt 0.175460 0.273003
vt 0.648549 0.067210
vt 0.660578 0.064449
vt 0.737111 0.059563
vt 0.226893 0.280392
vt 0.234569 0.955499
vt 0.118724 0.839216
vt 0.174896 0.868560
vt 0.166356 0.298619
vt 0.617706 0.818748
vt 0.671134 0.771913
vt 0.701064 0.836352
vt 0.701064 0.630185
vt 0.592943 0.404521
vt 0.593573 0.312267
vt 0.719139 0.451156
vt 0.691032 0.332532
vt 0.530397 0.338986
vt 0.418881 0.034999
vt 0.418881 0.152110
vt 0.364702 0.258013
vt 0.357308 0.137498
vt 0.404970 0.031869
vt 0.407090 0.108177
vt 0.383019 0.102650
vt 0.235130 0.839216
vt 0.174999 0.860925
vt 0.328415 0.258013
vt 0.356273 0.380673
vt 0.304839 0.265274
vt 0.795673 0.446270
vt 0.356273 0.272662
vt 0.096540 0.839112
vt 0.095342 0.712146
vt 0.107632 0.839046
vt 0.040369 0.809768
vt 0.295735 0.290890
vt 0.494898 0.915366
vt 0.537496 0.858502
vt 0.580095 0.915366
vt 0.537496 0.713649
vt 0.118724 0.839112
vt 0.119922 0.712146
vt 0.526940 0.248461
vt 0.646916 0.228222
vt 0.295735 0.265742
vt 0.231046 0.171172
vt 0.267908 0.031869
vt 0.072906 0.267775
vt 0.034994 0.130404
vt 0.100675 0.031869
vt 0.275941 0.034585
vt 0.266762 0.127355
vt 0.252765 0.122837
vt 0.235130 0.828429
vt 0.234569 0.712146
vt 0.055230 0.177749
vt 0.174999 0.806720
vt 0.382614 0.258013
vt 0.397318 0.258815
vt 0.397318 0.434920
vt 0.581377 0.125429
vt 0.638190 0.073918
vt 0.356273 0.308626
vt 0.526940 0.325935
vt 0.174896 0.809768
vt 0.258420 0.265742
vt 0.258420 0.443131
vt 0.231046 0.395290
vt 0.429038 0.713544
vt 0.411435 0.630186
vt 0.475873 0.660115
vt 0.617601 0.630185
vt 0.765218 0.178187
vt 0.751935 0.976190
vt 0.751935 0.755060
vt 0.810603 0.755060
vt 0.869271 0.976190
vt 0.869271 0.755060
vt 0.921168 0.755060
vt 0.810603 0.976190
vt 0.973065 0.755060
vt 0.973065 0.976190
vt 0.921168 0.976190
vt 0.782449 0.383803
vt 0.231046 0.035749
vt 0.166356 0.263302
vt 0.918896 0.160161
vt 0.345698 0.052137
vt 0.673802 0.126917
vt 0.537354 0.350558
vt 0.407271 0.052137
vt 0.295735 0.035749
vt 0.100675 0.263302
vn 0.024100 0.151800 0.988100
vn 0.615100 0.568200 0.546600
vn 0.000000 1.000000 0.000000
vn 0.977700 0.210200 0.002900
vn 0.000000 -0.392900 0.919600
vn 0.220500 0.106000 0.969600
vn -0.240100 -0.185000 0.953000
vn 0.949900 -0.175000 -0.259000
vn 0.196200 0.963800 0.180500
vn 0.137000 0.987300 0.079900
vn 0.087300 0.988700 0.121500
vn 0.872800 -0.488100 0.000000
vn 0.982900 0.131400 0.128800
vn 0.408900 -0.814900 0.410700
vn -0.488800 0.761300 0.426100
vn -0.072500 0.994500 -0.076100
vn 0.363500 0.827400 -0.428000
vn 0.179700 0.963800 0.196800
vn 0.573300 0.585300 0.573300
vn 0.024700 0.999600 0.012700
vn -0.024100 0.151800 0.988100
vn 0.000000 0.566800 0.823800
vn -0.408900 -0.814900 0.410700
vn 0.240100 -0.185000 0.953000
vn -0.615100 0.568200 0.546600
vn -0.977700 0.210200 0.002900
vn -0.949900 -0.175000 -0.259000
vn -0.087300 0.988700 0.121500
vn -0.137000 0.987300 0.079900
vn -0.196200 0.963800 0.180500
vn -0.872800 -0.488100 0.000000
vn -0.982900 0.131400 0.128800
vn 0.488800 0.761300 0.426100
vn 0.072500 0.994500 -0.076100
vn -0.363500 0.827400 -0.428000
vn 0.408900 -0.814900 -0.410700
vn -0.220500 0.106000 0.969600
vn -0.179700 0.963800 0.196800
vn -0.573300 0.585300 0.573300
vn -0.024700 0.999600 0.012700
vn 0.024100 0.151800 -0.988100
vn 0.000000 0.566800 -0.823800
vn 0.977700 0.210200 -0.002900
vn 0.615100 0.568200 -0.546600
vn 0.000000 -0.392900 -0.919600
vn -0.240100 -0.185000 -0.953000
vn 0.949900 -0.175000 0.259000
vn 0.087300 0.988700 -0.121500
vn 0.137000 0.987300 -0.079900
vn 0.196200 0.963800 -0.180500
vn 0.982900 0.131400 -0.128800
vn -0.488800 0.761300 -0.426100
vn -0.072500 0.994500 0.076100
vn 0.363500 0.827400 0.428000
vn 0.220500 0.106000 -0.969600
vn 0.179700 0.963800 -0.196800
vn 0.573300 0.585300 -0.573300
vn 0.024700 0.999600 -0.012700
vn -0.220500 0.106000 -0.969600
vn -0.408900 -0.814900 -0.410700
vn -0.024100 0.151800 -0.988100
vn -0.615100 0.568200 -0.546600
vn 0.240100 -0.185000 -0.953000
vn -0.949900 -0.175000 0.259000
vn -0.977700 0.210200 -0.002900
vn -0.196200 0.963800 -0.180500
vn -0.137000 0.987300 -0.079900
vn -0.087300 0.988700 -0.121500
vn -0.982900 0.131400 -0.128800
vn 0.488800 0.761300 -0.426100
vn 0.072500 0.994500 0.076100
vn -0.363500 0.827400 0.428000
vn -0.179700 0.963800 -0.196800
vn -0.573300 0.585300 -0.573300
vn -0.024700 0.999600 -0.012700
vn -0.707100 0.000000 0.707100
vn 0.707100 0.000000 0.707100
vn -0.707100 0.000000 -0.707100
vn 0.707100 0.000000 -0.707100
vn 0.856700 0.515800 0.000000
vn -0.856700 0.515800 0.000000
usemtl Material.001
s 1
f 12/1/1 10/2/2 36/3/3
f 36/3/3 10/2/2 11/4/4
f 2/5/5 6/6/6 12/1/1
f 10/7/2 12/8/1 5/9/7
f 3/10/8 11/11/4 10/12/2
f 3/13/9 8/14/10 7/15/11
f 44/16/12 14/17/13 9/18/14
f 8/19/10 3/10/9 11/11/15
f 11/20/4 9/18/14 14/17/13
f 7/21/11 8/22/10 9/23/16
f 11/4/4 14/24/13 44/25/12
f 9/23/16 12/26/17 7/21/11
f 6/27/6 2/28/5 9/29/14
f 6/27/6 9/29/14 12/30/1
f 12/8/17 5/9/18 7/15/11
f 9/31/16 8/32/10 11/33/15
f 5/34/7 3/35/8 1/36/19
f 4/37/20 5/34/7 1/36/19
f 3/35/8 4/37/20 1/36/19
f 25/38/21 13/39/22 36/3/3
f 9/29/14 2/28/5 22/40/23
f 2/5/5 13/39/22 25/38/21
f 18/41/24 25/42/21 23/43/25
f 23/43/25 24/44/26 16/45/27
f 20/46/28 21/47/29 16/45/30
f 61/48/31 22/49/23 27/50/32
f 21/47/29 24/44/33 16/45/30
f 24/51/26 27/50/32 22/49/23
f 20/52/28 22/53/34 21/54/29
f 61/55/31 27/56/32 24/57/26
f 22/53/34 20/52/28 25/58/35
f 9/18/14 37/59/36 44/16/12
f 19/60/37 25/61/21 22/40/23
f 25/42/35 20/46/28 18/41/38
f 22/53/34 24/62/33 21/54/29
f 18/63/24 15/64/39 16/65/27
f 17/66/40 15/64/39 18/63/24
f 16/65/27 15/64/39 17/66/40
f 41/67/41 42/68/42 36/3/3
f 40/69/43 38/70/44 36/3/3
f 29/71/45 42/68/42 41/67/41
f 32/72/46 41/73/41 38/74/44
f 38/74/44 40/75/43 30/76/47
f 34/77/48 35/78/49 30/76/50
f 44/16/12 37/59/36 43/79/51
f 35/78/49 40/75/52 30/76/50
f 40/80/43 43/79/51 37/59/36
f 34/81/48 37/82/53 35/83/49
f 44/25/12 43/84/51 40/69/43
f 37/82/53 34/81/48 41/85/54
f 33/86/55 37/87/36 29/88/45
f 33/86/55 41/89/41 37/87/36
f 41/73/54 34/77/48 32/72/56
f 37/82/53 40/90/52 35/83/49
f 32/91/46 28/92/57 30/93/47
f 31/94/58 28/92/57 32/91/46
f 30/93/47 28/92/57 31/94/58
f 50/95/59 29/88/45 54/96/60
f 37/87/36 54/96/60 29/88/45
f 58/97/61 55/98/62 36/3/3
f 55/99/62 58/100/61 49/101/63
f 47/102/64 57/103/65 55/104/62
f 47/105/66 52/106/67 51/107/68
f 61/48/31 60/108/69 54/109/60
f 52/110/67 47/102/66 57/103/70
f 57/111/65 54/109/60 60/108/69
f 51/112/68 52/113/67 54/114/71
f 57/115/65 60/116/69 61/55/31
f 54/114/71 58/117/72 51/112/68
f 29/71/45 50/118/59 58/97/61
f 50/95/59 54/96/60 58/119/61
f 58/100/72 49/101/73 51/107/68
f 54/120/71 52/121/67 57/122/70
f 49/123/63 47/124/64 45/125/74
f 48/126/75 49/123/63 45/125/74
f 47/124/64 48/126/75 45/125/74
f 24/57/26 23/127/25 36/3/3
f 19/60/37 22/40/23 2/28/5
f 22/49/23 61/48/31 54/109/60
f 36/3/3 55/98/62 57/115/65
f 22/128/23 46/129/76 59/130/77
f 54/131/60 26/132/78 46/133/76
f 37/134/36 53/130/79 26/132/78
f 9/135/14 59/136/77 53/137/79
f 13/39/22 12/1/1 36/3/3
f 39/138/80 36/3/3 11/4/4
f 13/39/22 2/5/5 12/1/1
f 4/139/20 10/7/2 5/9/7
f 4/140/20 3/10/8 10/12/2
f 5/9/18 3/13/9 7/15/11
f 39/138/80 11/4/4 44/25/12
f 23/127/25 25/38/21 36/3/3
f 19/141/37 2/5/5 25/38/21
f 17/142/40 18/41/24 23/43/25
f 17/142/40 23/43/25 16/45/27
f 18/41/38 20/46/28 16/45/30
f 56/143/81 61/55/31 24/57/26
f 38/70/44 41/67/41 36/3/3
f 39/138/80 40/69/43 36/3/3
f 33/144/55 29/71/45 41/67/41
f 31/145/58 32/72/46 38/74/44
f 31/145/58 38/74/44 30/76/47
f 32/72/56 34/77/48 30/76/50
f 39/138/80 44/25/12 40/69/43
f 42/68/42 58/97/61 36/3/3
f 48/146/75 55/99/62 49/101/63
f 48/147/75 47/102/64 55/104/62
f 49/101/73 47/105/66 51/107/68
f 56/143/81 57/115/65 61/55/31
f 42/68/42 29/71/45 58/97/61
f 56/143/81 24/57/26 36/3/3
f 56/143/81 36/3/3 57/115/65
f 9/134/14 22/128/23 59/130/77
f 22/137/23 54/131/60 46/133/76
f 54/131/60 37/134/36 26/132/78
f 37/133/36 9/135/14 53/137/79
