# Blender v2.69 (sub 0) OBJ File: 'present.blend'
# www.blender.org
mtllib bat.mtl
o Cube
v 1.000000 -1.000000 -1.000000
v 1.000000 -1.000000 1.000000
v -1.000000 -1.000000 1.000000
v -1.000000 -1.000000 -1.000000
v 1.000000 0.618901 -1.000000
v 0.999999 0.618901 1.000000
v -1.000000 0.618901 1.000000
v -1.000000 0.618901 -1.000000
v -1.043823 1.000000 -1.000000
v -1.043823 1.000000 1.000000
v 1.043822 1.000000 1.000001
v 1.043824 1.000000 -1.000000
v 1.043823 0.618901 -1.000000
v 1.043823 0.618901 1.000000
v -1.043823 0.618901 1.000000
v -1.043823 0.618901 -1.000000
v 1.043823 0.618901 -1.000000
v 1.043823 0.618901 1.000000
v -1.043823 0.618901 1.000000
v -1.043823 0.618901 -1.000000
v -1.043823 1.000000 -1.038710
v -1.043823 1.000000 1.038709
v 1.043822 1.000000 1.038710
v 1.043824 1.000000 -1.038709
v 1.043823 0.618901 -1.038709
v 1.043823 0.618901 1.038710
v -1.043823 0.618901 1.038709
v -1.043823 0.618901 -1.038710
vt 0.000000 0.000000
vt 0.695909 0.869369
vt 0.695908 0.336601
vt 0.707581 0.869369
vt 0.695844 0.336601
vt 0.695846 0.869369
vt 0.684171 0.336601
vt 0.500000 0.202390
vt 0.500000 0.000045
vt 0.749978 0.202390
vt 0.250023 0.000045
vt 0.250023 0.202390
vt 0.000045 0.000045
vt 0.999955 0.000045
vt 0.999955 0.202390
vt 0.749977 0.000045
vt 0.515278 0.255525
vt 0.560998 0.255525
vt 0.515279 0.505974
vt 0.250347 0.555974
vt 0.250347 0.510255
vt 0.499569 0.555974
vt 0.204627 0.259806
vt 0.250347 0.259806
vt 0.204628 0.510255
vt 0.499568 0.214087
vt 0.499568 0.259806
vt 0.250346 0.214087
vt 0.499569 0.510255
vt 0.728329 0.313287
vt 0.728328 0.869369
vt 0.718017 0.313287
vt 0.707643 0.869369
vt 0.707643 0.313263
vt 0.717954 0.869369
vt 0.707581 0.336601
vt 0.684172 0.869369
vt 0.000045 0.202390
vt 0.560998 0.505974
vt 0.718017 0.869369
vt 0.717955 0.313263
vn 0.000000 -1.000000 0.000000
vn 0.000000 0.336697 0.941613
vn 0.000000 0.000000 -1.000000
vn 1.000000 -0.000000 0.000000
vn -0.000000 -0.000000 1.000000
vn -1.000000 -0.000000 -0.000000
vn 0.000000 1.000000 -0.000000
vn 0.000000 0.087312 -0.996181
vn 1.000000 -0.000000 0.000001
usemtl Material
s off
f 1/1/1 2/1/1 4/1/1
f 6/2/1 5/3/1 14/4/1
f 7/1/2 6/1/2 15/1/2
f 8/5/1 7/6/1 16/7/1
f 5/8/3 1/9/3 8/10/3
f 1/9/4 5/8/4 2/11/4
f 2/11/5 6/12/5 3/13/5
f 3/14/6 7/15/6 4/16/6
f 5/1/1 8/1/1 13/1/1
f 24/17/3 25/18/3 21/19/3
f 27/20/6 22/21/6 28/22/6
f 26/23/5 23/24/5 27/25/5
f 25/26/4 24/27/4 26/28/4
f 24/27/7 21/29/7 23/24/7
f 17/30/1 20/31/1 25/32/1
f 20/1/7 19/1/7 28/1/7
f 19/33/1 18/34/1 27/35/1
f 18/1/1 17/1/1 26/1/1
f 2/1/1 3/1/1 4/1/1
f 5/3/1 13/36/1 14/4/1
f 6/1/7 14/1/7 15/1/7
f 7/6/1 15/37/1 16/7/1
f 1/9/3 4/16/3 8/10/3
f 5/8/4 6/12/4 2/11/4
f 6/12/5 7/38/5 3/13/5
f 7/15/6 8/10/6 4/16/6
f 8/1/8 16/1/8 13/1/8
f 25/18/3 28/39/3 21/19/3
f 22/21/6 21/29/6 28/22/6
f 23/24/5 22/21/5 27/25/5
f 24/27/9 23/24/9 26/28/9
f 21/29/7 22/21/7 23/24/7
f 20/31/1 28/40/1 25/32/1
f 19/1/5 27/1/5 28/1/5
f 18/34/1 26/41/1 27/35/1
f 17/1/5 25/1/5 26/1/5
l 10 9
l 12 11
