# Blender v2.69 (sub 0) OBJ File: 'test-city.blend'
# www.blender.org
mtllib building0.mtl
o building_01_GEO_Cube.003
v -0.519146 -1.354037 0.522318
v -0.519146 -1.354037 -0.522318
v 0.525491 -1.354037 -0.522318
v 0.525491 -1.354037 0.522318
v -0.519146 2.084037 -0.522318
v -0.519146 2.084037 0.522318
v 0.525491 2.084037 -0.522318
v 0.525491 2.084037 0.522318
vt 0.209024 0.936051
vt 0.064531 0.936051
vt 0.209024 0.460503
vt 0.642501 0.936051
vt 0.498008 0.936051
vt 0.642501 0.460503
vt 0.353516 0.936051
vt 0.498008 0.460503
vt 0.353516 0.460503
vt 0.768027 0.225346
vt 0.768030 0.108849
vt 0.884523 0.225349
vt 0.768018 0.608753
vt 0.884513 0.608755
vt 0.768018 0.725248
vt 0.064531 0.460503
vt 0.884527 0.108853
vt 0.884512 0.725248
vn -1.000000 0.000000 0.000000
vn 0.000000 0.000000 -1.000000
vn 1.000000 0.000000 0.000000
vn 0.000000 0.000000 1.000000
vn 0.000000 1.000000 0.000000
vn 0.000000 -1.000000 0.000000
usemtl Material
s off
f 6/1/1 5/2/1 1/3/1
f 5/4/2 7/5/2 2/6/2
f 7/5/3 8/7/3 3/8/3
f 8/7/4 6/1/4 4/9/4
f 5/10/5 6/11/5 7/12/5
f 2/13/6 3/14/6 1/15/6
f 5/2/1 2/16/1 1/3/1
f 7/5/2 3/8/2 2/6/2
f 8/7/3 4/9/3 3/8/3
f 6/1/4 1/3/4 4/9/4
f 6/11/5 8/17/5 7/12/5
f 3/14/6 4/18/6 1/15/6
